# File created by Blade
# Date/Time:  Tue Apr 07 20:17:56 2015
# Frame Rate: 120.000 fps
#------------------------------------------------------
:FULLY-SPECIFIED
:DEGREES
718
root 5.471496 34.470398 -9.452562 19.595396 -20.943324 -50.286491
Spine 6.645262 24.624730 36.777218
Head 6.419847 -2.376201 19.409590
LeftShoulder -22.781742 41.285765 15.388262
LeftArm 52.650929 -52.757959 -82.088005
LeftForeArm -0.821053 -0.000000 11.577188
LeftHand 10.861580 -0.000000 6.592034
LeftHandThumb1 -26.253704 0.000000 33.147579
RightShoulder -7.665937 28.580067 -23.031146
RightArm 44.366884 75.489952 87.946982
RightForeArm 55.734863 -0.000000 53.796037
RightHand 6.457829 -0.000000 14.951395
RightHandThumb1 -24.326973 -0.000000 -32.862282
LeftUpLeg -6.001865 -1.207850 41.741529
LeftLeg 22.587586 -0.000000 -0.000000
LeftFoot -12.600042 28.171708 -9.555485
LeftToeBase -13.476150 -0.000000 0.000000
RightUpLeg -146.364936 -42.489151 35.886862
RightLeg 19.310245 -0.000000 -0.000000
RightFoot 39.590542 -8.766055 -1.053067
RightToeBase 42.649493 -0.000000 -0.000000
719
root 5.469704 34.506555 -9.455484 19.623957 -20.968996 -50.288883
Spine 6.732912 24.621063 36.738022
Head 6.358898 -2.345464 19.358652
LeftShoulder -22.748777 41.283005 15.411748
LeftArm 52.564786 -52.760121 -82.107593
LeftForeArm -1.010793 -0.000000 11.649251
LeftHand 10.920680 -0.000000 6.721786
LeftHandThumb1 -26.253704 0.000000 33.147579
RightShoulder -7.613531 28.377408 -23.114877
RightArm 43.755574 75.587099 87.700935
RightForeArm 55.950788 -0.000000 53.441476
RightHand 6.563751 -0.000000 14.983228
RightHandThumb1 -24.326973 -0.000000 -32.862282
LeftUpLeg -5.883892 -0.939339 41.763839
LeftLeg 22.334878 -0.000000 -0.000000
LeftFoot -12.555634 27.898549 -10.088561
LeftToeBase -13.498687 -0.000000 0.000000
RightUpLeg -146.482383 -42.374701 35.891027
RightLeg 20.141342 -0.000000 -0.000000
RightFoot 39.513458 -9.325463 -0.768849
RightToeBase 42.410539 -0.000000 -0.000000
720
root 5.468903 34.538136 -9.457075 19.620410 -20.978698 -50.257089
Spine 6.804183 24.537370 36.666889
Head 6.341863 -2.331494 19.316066
LeftShoulder -22.744908 41.309522 15.418316
LeftArm 52.633232 -52.879047 -82.398219
LeftForeArm -0.978741 -0.000000 11.863042
LeftHand 10.801910 -0.000000 6.795198
LeftHandThumb1 -26.253704 0.000000 33.147579
RightShoulder -7.487869 28.134982 -23.161304
RightArm 43.457712 75.715398 87.754419
RightForeArm 56.124221 0.000000 53.075390
RightHand 6.680746 -0.000000 14.983821
RightHandThumb1 -24.326973 -0.000000 -32.862282
LeftUpLeg -5.729533 -0.740054 41.751649
LeftLeg 22.014825 -0.000000 -0.000000
LeftFoot -12.588777 27.722262 -10.622785
LeftToeBase -13.184407 -0.000000 0.000000
RightUpLeg -146.560357 -42.344687 35.834116
RightLeg 20.945142 -0.000000 -0.000000
RightFoot 39.458885 -9.774474 -0.492693
RightToeBase 42.378868 -0.000000 -0.000000
721
root 5.468341 34.564654 -9.458064 19.627436 -20.988324 -50.231774
Spine 6.845687 24.432550 36.597847
Head 6.375610 -2.300882 19.234781
LeftShoulder -22.766657 41.368465 15.398992
LeftArm 52.722210 -52.979861 -82.650327
LeftForeArm -1.026628 -0.000000 12.041640
LeftHand 10.767656 -0.000000 6.865162
LeftHandThumb1 -26.253704 0.000000 33.147579
RightShoulder -7.352950 27.871180 -23.205277
RightArm 43.378653 75.828861 88.035063
RightForeArm 56.344206 -0.000000 52.662935
RightHand 6.759906 -0.000000 15.011085
RightHandThumb1 -24.326973 -0.000000 -32.862282
LeftUpLeg -5.550111 -0.520222 41.756435
LeftLeg 21.659023 -0.000000 -0.000000
LeftFoot -12.737757 27.397067 -11.351152
LeftToeBase -12.991031 -0.000000 0.000000
RightUpLeg -146.669522 -42.270485 35.829878
RightLeg 21.749997 -0.000000 -0.000000
RightFoot 39.476782 -10.117434 -0.262126
RightToeBase 42.073230 -0.000000 -0.000000
722
root 5.464621 34.584365 -9.454710 19.598119 -20.997324 -50.172819
Spine 6.870018 24.266964 36.470837
Head 6.433102 -2.253527 19.187815
LeftShoulder -22.819246 41.380848 15.377542
LeftArm 52.757548 -53.086112 -82.816453
LeftForeArm -1.086787 -0.000000 12.185860
LeftHand 10.819761 -0.000000 7.065483
LeftHandThumb1 -26.253704 0.000000 33.147579
RightShoulder -7.176178 27.668930 -23.215809
RightArm 43.049993 75.931415 88.081892
RightForeArm 56.661503 -0.000000 52.238944
RightHand 6.792977 -0.000000 15.110918
RightHandThumb1 -24.326973 -0.000000 -32.862282
LeftUpLeg -5.307083 -0.370602 41.743678
LeftLeg 21.256189 -0.000000 -0.000000
LeftFoot -13.153673 27.002666 -12.307226
LeftToeBase -12.498782 -0.000000 0.000000
RightUpLeg -146.775415 -42.260439 35.778164
RightLeg 22.583500 -0.000000 -0.000000
RightFoot 39.449685 -10.390054 0.083586
RightToeBase 42.060861 -0.000000 -0.000000
723
root 5.460991 34.596354 -9.449875 19.578809 -21.016431 -50.110243
Spine 6.862986 24.129286 36.328038
Head 6.511696 -2.224143 19.173164
LeftShoulder -22.887575 41.399757 15.325961
LeftArm 52.911011 -53.217675 -83.018265
LeftForeArm -1.008704 -0.000000 12.318573
LeftHand 10.838971 -0.000000 7.171117
LeftHandThumb1 -26.253704 0.000000 33.147579
RightShoulder -7.020820 27.485308 -23.215482
RightArm 42.483929 75.985749 87.876061
RightForeArm 57.220237 -0.000000 51.806475
RightHand 6.833716 0.000000 14.966619
RightHandThumb1 -24.326973 -0.000000 -32.862282
LeftUpLeg -5.064084 -0.173063 41.738552
LeftLeg 20.870618 -0.000000 -0.000000
LeftFoot -13.518588 26.544843 -13.013150
LeftToeBase -11.808048 -0.000000 0.000000
RightUpLeg -146.874173 -42.228395 35.739240
RightLeg 23.372861 -0.000000 -0.000000
RightFoot 39.641462 -10.510802 0.159979
RightToeBase 41.542043 -0.000000 -0.000000
724
root 5.457211 34.600200 -9.446342 19.590591 -21.036798 -50.021983
Spine 6.798856 24.015778 36.122484
Head 6.573337 -2.196521 19.196326
LeftShoulder -22.960990 41.371525 15.291357
LeftArm 52.975843 -53.310524 -83.080202
LeftForeArm -0.975963 -0.000000 12.456802
LeftHand 10.887871 -0.000000 7.264308
LeftHandThumb1 -26.253704 0.000000 33.147579
RightShoulder -6.847660 27.315525 -23.133864
RightArm 41.763011 76.006473 87.435764
RightForeArm 57.794414 -0.000000 51.381623
RightHand 6.842418 -0.000000 14.942208
RightHandThumb1 -24.326973 -0.000000 -32.862282
LeftUpLeg -4.860730 0.080179 41.726054
LeftLeg 20.484745 -0.000000 -0.000000
LeftFoot -13.850574 25.980492 -13.853109
LeftToeBase -11.840535 -0.000000 0.000000
RightUpLeg -146.995109 -42.221524 35.692128
RightLeg 24.106723 -0.000000 -0.000000
RightFoot 39.780548 -10.866110 0.485853
RightToeBase 41.626262 -0.000000 -0.000000
725
root 5.452871 34.597081 -9.441553 19.585149 -21.092771 -49.948995
Spine 6.781851 23.924950 35.938570
Head 6.580812 -2.177137 19.203135
LeftShoulder -23.053948 41.332934 15.225212
LeftArm 53.111062 -53.404812 -83.158086
LeftForeArm -0.937489 0.000000 12.583475
LeftHand 10.903785 0.000000 7.426832
LeftHandThumb1 -26.253704 0.000000 33.147579
RightShoulder -6.648543 27.135888 -23.021558
RightArm 41.087286 76.041328 86.974777
RightForeArm 58.215672 0.000000 50.936231
RightHand 7.042556 -0.000000 14.829460
RightHandThumb1 -24.326973 -0.000000 -32.862282
LeftUpLeg -4.607550 0.357765 41.734223
LeftLeg 20.106718 -0.000000 -0.000000
LeftFoot -14.205637 25.372517 -14.672650
LeftToeBase -11.641807 -0.000000 0.000000
RightUpLeg -147.080353 -42.140264 35.667458
RightLeg 24.795039 -0.000000 -0.000000
RightFoot 39.922326 -11.281161 0.671650
RightToeBase 41.350963 -0.000000 -0.000000
726
root 5.447336 34.587645 -9.435874 19.540448 -21.174172 -49.867602
Spine 6.824830 23.851584 35.755273
Head 6.506952 -2.113912 19.224585
LeftShoulder -23.143277 41.255087 15.166108
LeftArm 53.294095 -53.504143 -83.260008
LeftForeArm -0.826680 0.000000 12.690474
LeftHand 11.041141 -0.000000 7.439573
LeftHandThumb1 -26.253704 0.000000 33.147579
RightShoulder -6.484496 26.981904 -22.913306
RightArm 40.487006 76.125053 86.601540
RightForeArm 58.488753 0.000000 50.536588
RightHand 7.029961 -0.000000 14.863455
RightHandThumb1 -24.326973 -0.000000 -32.862282
LeftUpLeg -4.337238 0.692986 41.736361
LeftLeg 19.781326 -0.000000 -0.000000
LeftFoot -14.498117 24.724520 -15.402930
LeftToeBase -11.372858 -0.000000 0.000000
RightUpLeg -147.105442 -42.061778 35.607483
RightLeg 25.440159 -0.000000 -0.000000
RightFoot 40.035561 -11.643139 0.757180
RightToeBase 41.146222 -0.000000 -0.000000
727
root 5.445740 34.572203 -9.432996 19.481474 -21.272992 -49.754413
Spine 6.904659 23.825039 35.553025
Head 6.335370 -2.034884 19.256165
LeftShoulder -23.213650 41.176779 15.116373
LeftArm 53.483431 -53.539971 -83.355192
LeftForeArm -0.761696 -0.000000 12.862528
LeftHand 11.096188 -0.000000 7.450624
LeftHandThumb1 -26.253704 0.000000 33.147579
RightShoulder -6.355703 26.938841 -22.798854
RightArm 39.081334 76.159428 85.348912
RightForeArm 58.696889 -0.000000 50.111749
RightHand 7.083449 -0.000000 14.956255
RightHandThumb1 -24.326973 -0.000000 -32.862282
LeftUpLeg -4.118901 0.902107 41.705503
LeftLeg 19.600783 -0.000000 -0.000000
LeftFoot -15.128414 23.995259 -16.570738
LeftToeBase -10.533372 -0.000000 0.000000
RightUpLeg -147.096352 -41.966219 35.516510
RightLeg 26.017734 -0.000000 -0.000000
RightFoot 40.167954 -12.041825 0.913911
RightToeBase 40.717933 -0.000000 -0.000000
728
root 5.445552 34.554916 -9.432009 19.366608 -21.382753 -49.639674
Spine 7.077946 23.797235 35.377059
Head 6.064424 -1.946365 19.292817
LeftShoulder -23.127794 40.894757 15.254822
LeftArm 53.250653 -53.553637 -83.221428
LeftForeArm -0.741581 -0.000000 13.174789
LeftHand 10.976939 -0.000000 7.453747
LeftHandThumb1 -26.253704 0.000000 33.147579
RightShoulder -6.254633 26.860132 -22.667928
RightArm 37.919669 76.186936 84.297928
RightForeArm 58.821558 0.000000 49.677672
RightHand 7.095096 0.000000 14.948329
RightHandThumb1 -24.326973 -0.000000 -32.862282
LeftUpLeg -3.878300 1.109057 41.668225
LeftLeg 19.435572 -0.000000 -0.000000
LeftFoot -15.605734 23.299111 -17.510089
LeftToeBase -9.958615 -0.000000 0.000000
RightUpLeg -147.012417 -41.869486 35.390910
RightLeg 26.577682 -0.000000 -0.000000
RightFoot 40.199379 -12.547134 1.197225
RightToeBase 40.397263 -0.000000 -0.000000
729
root 5.443389 34.534863 -9.431267 19.170280 -21.518512 -49.494152
Spine 7.354305 23.757748 35.194007
Head 5.725261 -1.814784 19.314666
LeftShoulder -23.136697 40.803499 15.270040
LeftArm 53.329848 -53.481107 -83.264017
LeftForeArm -1.000473 -0.000000 13.471658
LeftHand 10.917170 -0.000000 7.558140
LeftHandThumb1 -26.253704 0.000000 33.147579
RightShoulder -6.169603 26.716671 -22.506534
RightArm 36.488596 76.096410 82.902746
RightForeArm 59.167901 -0.000000 49.200512
RightHand 7.302252 0.000000 14.780014
RightHandThumb1 -24.326973 -0.000000 -32.862282
LeftUpLeg -3.624122 1.312271 41.589326
LeftLeg 19.367580 -0.000000 -0.000000
LeftFoot -15.852848 22.727697 -18.054704
LeftToeBase -9.861908 -0.000000 0.000000
RightUpLeg -146.876824 -41.764248 35.209979
RightLeg 27.181520 -0.000000 -0.000000
RightFoot 40.273597 -12.927667 1.434876
RightToeBase 40.343281 -0.000000 -0.000000
730
root 5.445258 34.513820 -9.436892 18.888613 -21.603141 -49.279561
Spine 7.706597 23.653520 34.996634
Head 5.309718 -1.676571 19.324271
LeftShoulder -23.220706 40.913044 15.147919
LeftArm 53.922356 -53.433676 -83.750249
LeftForeArm -0.927090 -0.000000 13.749741
LeftHand 10.919836 -0.000000 7.579087
LeftHandThumb1 -26.253704 0.000000 33.147579
RightShoulder -6.187078 26.782359 -22.446464
RightArm 34.658434 75.969037 81.216619
RightForeArm 59.449909 -0.000000 48.722536
RightHand 7.239286 -0.000000 14.782813
RightHandThumb1 -24.326973 -0.000000 -32.862282
LeftUpLeg -3.437614 1.352985 41.449421
LeftLeg 19.384484 -0.000000 -0.000000
LeftFoot -16.251995 22.179899 -18.759459
LeftToeBase -9.157603 -0.000000 0.000000
RightUpLeg -146.695844 -41.745800 34.952632
RightLeg 27.786600 -0.000000 -0.000000
RightFoot 40.422731 -13.250870 1.570456
RightToeBase 39.859808 -0.000000 -0.000000
